<?xml version="1.0" encoding="UTF-8" standalone="no"?>
<svg id="svg4277" xmlns:rdf="http://www.w3.org/1999/02/22-rdf-syntax-ns#" xmlns="http://www.w3.org/2000/svg" height="282.22mm" width="282.22mm" version="1.1" xmlns:cc="http://creativecommons.org/ns#" xmlns:dc="http://purl.org/dc/elements/1.1/" viewBox="0 0 999.99873 999.99991">
<g id="layer1" transform="translate(225.34 -77.711)">
<path id="path2833" d="m659.83 595.11c0.1242-4.9344 2.8525-8.7047 8.6421-13.806 12.897-11.364 34.746 2.7826 25.13 16.332-4.7367 6.674-19.499 0.7193-16.372-6.6038 1.011-2.3674 2.6338-1.5071 3.9915 2.1151 2.4403 6.5111 9.9589 4.5568 10.227-2.6583 0.4839-13.007-16.514-15.04-21.8-2.6072-6.9153 16.266 8.3111 30.179 24.862 24.016 6.3678-2.371 11.302-12.548 9.5178-20.315-1.5559-6.7718-0.6243-7.0183 10.972-2.9007 31.446 11.165 55.809 46.382 54.876 72.876-0.1975 5.6076-2.1308 14.562-4.1556 19.235-0.6552 1.5122-1.5593 1.9056-3.4804 1.5132-11.376-2.3238-23.934 12.327-24.577 25.859-0.4713 9.9212 4.2074 19.889 11.69 22.33 1.8597 0.6067 2.4592 1.402 2.2928 3.04-3.2341 31.837-49.129 62.953-90.113 54.71-12.064-2.4266-12.737-3.1168-7.9224-8.1267 5.5224-5.7466 6.206-17.186 1.965-22.495-11.024-13.799-30.935-9.504-33.361 8.0034-1.8541 13.382 13.773 20.373 20.042 8.9653 3.4772-6.3276-2.5502-11.22-7.8821-6.7571-2.9662 2.483-4.8023 2.432-4.5155-0.12625 0.8873-7.9134 16.668-5.8205 17.501 2.321 1.6914 16.529-24.373 18.046-30.002 1.8047-9.5126-27.449 17.414-32.102 56.516-14.323 35.591 16.183 54.848 11.824 66.98-8.7427 4.6053-7.8067 4.9453-11.232 0.6749-14.804-18.785-15.712-8.7754-53.597 15.42-57.384 5.5003-0.86094 7.2245-5.2861 7.0762-14.349-0.3907-23.876-14.852-36.37-53.696-40.81-31.34-3.5823-50.843-12.67-50.5-26.312m-59.824 189.51c2.6379-4.172 6.132-4.904 13.683-6.496 16.819-3.5462 29.217 19.291 14.012 25.989-7.4897 3.299-17.592-8.4118-11.267-13.25 2.0446-1.5641 3.0345-0.0166 2.435 3.8047-1.0775 6.8694 6.43 8.8656 10.212 2.7156 6.8187-11.087-6.9816-21.218-17.699-12.992-14.021 10.761-7.7868 30.268 9.6567 33.035 6.7109 1.0644 16.191-5.2622 18.458-12.903 1.9759-6.6614 2.9083-6.4178 10.98 2.8709 21.888 25.188 24.963 68.92 10.58 91.189-3.0443 4.7134-8.2309 10.441-12.292 13.516-1.314 0.99481-2.2946 0.89296-3.7747-0.39322-8.7641-7.6162-27.145-1.2178-34.368 10.244-5.2957 8.4028-7.069 20.096-1.906 26.038 1.2831 1.4765 1.3884 2.467 0.4035 3.7863-19.142 25.645-73.152 29.132-104.71 1.7109-9.2887-8.072-9.5323-9.0044-2.8709-10.98 7.641-2.2664 13.966-11.75 12.901-18.461-2.7667-17.444-22.271-23.675-33.032-9.6536-8.2256 10.717 1.9046 24.517 12.992 17.699 6.1501-3.7823 4.1538-11.29-2.7156-10.212-3.8215 0.59944-5.3687-0.3904-3.8047-2.4351 4.8382-6.3246 16.548 3.7759 13.249 11.266-6.6974 15.205-29.534 2.8117-25.988-14.008 5.9934-28.426 30.089-18.424 55.306 16.349 22.953 31.651 42.026 37.542 62.726 25.637 7.8571-4.5189 9.9093-7.2787 7.9551-12.492-8.5964-22.931 19.136-50.671 42.068-42.075 5.213 1.9542 7.9714-0.0992 12.49-7.9563 11.905-20.7 6.009-39.776-25.642-62.729-25.536-18.519-37.332-37.279-30.039-48.813m-147.4 135.12c4.3549-2.3234 8.9553-1.8975 16.246 0.62924 16.242 5.6285 14.726 31.694-1.8027 30.003-8.1417-0.83307-10.234-16.613-2.321-17.501 2.5581-0.28689 2.6091 1.5493 0.1262 4.5155-4.4633 5.3318 0.4287 11.358 6.7563 7.8804 11.407-6.2686 4.4167-21.896-8.9654-20.041-17.507 2.4257-21.801 22.34-8.0017 33.364 5.3087 4.241 16.747 3.5542 22.493-1.9683 5.0099-4.8145 5.7-4.142 8.1266 7.9225 6.5802 32.714-12.498 71.811-35.995 84.086-4.9734 2.5981-13.65 5.4771-18.714 6.0261-1.6385 0.1777-2.427-0.4139-3.0353-2.2779-3.6014-11.038-21.771-15.055-33.699-8.6323-8.7453 4.7089-16.063 13.814-14.488 21.526 0.3912 1.9166-0.01 2.8308-1.51 3.4956-29.277 12.921-78.125-11.327-92.113-50.722-4.1176-11.597-3.871-12.528 2.9008-10.972 7.7676 1.7847 17.944-3.1539 20.315-9.5215 6.1629-16.552-7.7502-31.774-24.016-24.859-12.433 5.2858-10.4 22.284 2.6072 21.8 7.215-0.26845 9.1694-7.7871 2.6583-10.227-3.6221-1.3576-4.4825-2.9805-2.1151-3.9915 7.3231-3.1272 13.278 11.635 6.6038 16.372-13.549 9.6163-27.697-12.231-16.333-25.128 19.206-21.796 35.241-0.82607 40.119 41.85 4.44 38.845 16.933 53.302 40.809 53.692 9.0627 0.1483 13.487-1.5796 14.348-7.0799 3.7873-24.195 41.67-34.214 57.382-15.429 3.5717 4.2704 6.9966 3.9286 14.803-0.6767 20.567-12.133 24.924-31.394 8.7405-66.986-13.057-28.716-13.968-50.727-1.9274-57.15m-195.35 43.137c4.9344 0.12415 8.7047 2.8526 13.806 8.6422 11.364 12.897-2.7825 34.746-16.332 25.13-6.674-4.7367-0.7193-19.499 6.6038-16.372 2.3675 1.011 1.5071 2.6339-2.1151 3.9914-6.5111 2.4404-4.5567 9.959 2.6583 10.227 13.007 0.48389 15.04-16.514 2.6072-21.8-16.266-6.9152-30.179 8.3111-24.016 24.863 2.371 6.3677 12.548 11.302 20.315 9.5178 6.7718-1.5559 7.0183-0.6243 2.9008 10.972-11.166 31.446-46.382 55.808-72.876 54.876-5.6075-0.1975-14.562-2.1309-19.235-4.1557-1.5123-0.6553-1.9054-1.5592-1.5132-3.4804 2.3238-11.376-12.327-23.934-25.859-24.577-9.9213-0.4713-19.889 4.2074-22.33 11.69-0.607 1.8595-1.4021 2.4592-3.0401 2.2927-31.837-3.2341-62.953-49.13-54.71-90.114 2.4266-12.064 3.1169-12.737 8.1268-7.9224 5.7465 5.5225 17.186 6.2061 22.495 1.965 13.799-11.024 9.504-30.935-8.0034-33.361-13.382-1.854-20.373 13.773-8.9654 20.041 6.3276 3.4772 11.22-2.5502 6.7571-7.882-2.483-2.9662-2.432-4.8023 0.1263-4.5155 7.9133 0.88731 5.8205 16.668-2.321 17.501-16.529 1.6913-18.046-24.373-1.8047-30.002 27.449-9.5126 32.102 17.415 14.323 56.517-16.183 35.591-11.824 54.848 8.7426 66.981 7.8067 4.6053 11.232 4.9454 14.804 0.6749 15.712-18.785 53.597-8.7753 57.384 15.42 0.8609 5.5003 5.286 7.2246 14.349 7.0763 23.876-0.3906 36.37-14.851 40.81-53.696 3.5823-31.34 12.67-50.843 26.312-50.5m-189.51-59.824c4.1719 2.6379 4.9039 6.1321 6.4959 13.683 3.5461 16.819-19.291 29.217-25.989 14.011-3.299-7.4897 8.4117-17.592 13.25-11.267 1.5641 2.0446 0.017 3.0344-3.8047 2.435-6.8694-1.0776-8.8657 6.43-2.7156 10.212 11.087 6.8187 21.218-6.9816 12.992-17.699-10.761-14.021-30.268-7.7868-33.035 9.6567-1.0645 6.7108 5.2622 16.191 12.903 18.458 6.6614 1.9759 6.4178 2.9083-2.8709 10.98-25.188 21.888-68.92 24.963-91.189 10.58-4.7133-3.0443-10.441-8.231-13.516-12.292-0.9948-1.314-0.8928-2.2944 0.3933-3.7746 7.6161-8.7642 1.2178-27.145-10.244-34.368-8.4029-5.2957-20.096-7.0691-26.038-1.9061-1.4767 1.2829-2.467 1.3885-3.7863 0.40354-25.645-19.143-29.132-73.153-1.7108-104.71 8.072-9.2888 9.0044-9.5323 10.98-2.8709 2.2664 7.641 11.75 13.966 18.461 12.901 17.444-2.7668 23.675-22.271 9.6538-33.033-10.717-8.2255-24.518 1.9047-17.699 12.992 3.7824 6.1501 11.289 4.1528 10.212-2.7166-0.5995-3.8216 0.391-5.3678 2.4357-3.8037 6.3246 4.8381-3.776 16.548-11.266 13.249-15.205-6.6975-2.8117-29.534 14.008-25.988 28.426 5.9933 18.423 30.089-16.35 55.306-31.651 22.953-37.542 42.026-25.637 62.726 4.5188 7.8571 7.2787 9.9093 12.492 7.9551 22.932-8.5964 50.671 19.137 42.075 42.068-1.9543 5.213 0.098 7.9706 7.9553 12.49 20.7 11.905 39.777 6.0098 62.73-25.641 18.519-25.536 37.279-37.332 48.813-30.039m-135.12-147.4c2.3235 4.355 1.8976 8.9554-0.6292 16.247-5.6285 16.242-31.694 14.726-30.003-1.8028 0.833-8.1416 16.613-10.235 17.5-2.3221 0.2869 2.5582-1.5487 2.6103-4.5149 0.12735-5.3319-4.4633-11.358 0.42756-7.881 6.7552 6.2687 11.407 21.896 4.4167 20.042-8.9654-2.4257-17.507-22.34-21.801-33.364-8.0017-4.2411 5.3087-3.5537 16.748 1.9688 22.494 4.8145 5.0099 4.142 5.7-7.9224 8.1267-32.714 6.5801-71.811-12.498-84.086-35.995-2.598-4.9733-5.4774-13.651-6.0264-18.715-0.1777-1.6385 0.4139-2.427 2.2779-3.0354 11.038-3.6015 15.055-21.771 8.6323-33.699-4.7088-8.7453-13.814-16.063-21.526-14.488-1.9167 0.39126-2.8306-0.002-3.4954-1.5087-12.921-29.277 11.327-78.126 50.722-92.114 11.597-4.1176 12.528-3.8711 10.972 2.9007-1.7848 7.7676 3.1538 17.945 9.5215 20.316 16.552 6.1629 31.774-7.7514 24.859-24.017-5.2859-12.433-22.284-10.4-21.8 2.6072 0.2684 7.2151 7.787 9.1694 10.227 2.6583 1.3576-3.6222 2.9805-4.4814 3.9915-2.114 3.1272 7.3232-11.636 13.277-16.372 6.6026-9.6163-13.549 12.231-27.696 25.128-16.332 21.796 19.206 0.8261 35.241-41.85 40.119-38.845 4.44-53.302 16.933-53.692 40.809-0.1483 9.0626 1.5794 13.486 7.0796 14.347 24.195 3.7873 34.214 41.671 15.429 57.383-4.2705 3.5717-3.929 6.9955 0.6762 14.802 12.133 20.567 31.394 24.924 66.986 8.7405 28.716-13.057 50.727-13.967 57.151-1.9264m-43.11-195.38c-0.1241 4.9344-2.8524 8.7047-8.6421 13.806-12.897 11.364-34.746-2.7826-25.13-16.332 4.7367-6.674 19.499-0.71927 16.372 6.6039-1.011 2.3675-2.6338 1.5071-3.9915-2.1151-2.4403-6.5112-9.9589-4.5568-10.227 2.6583-0.4839 13.007 16.514 15.04 21.8 2.6072 6.9153-16.266-8.3112-30.179-24.863-24.016-6.3677 2.371-11.302 12.548-9.5177 20.315 1.5559 6.7718 0.6243 7.0183-10.972 2.9007-31.446-11.165-55.809-46.382-54.876-72.876 0.1974-5.6075 2.1307-14.562 4.1555-19.235 0.6552-1.5123 1.5592-1.9055 3.4804-1.5132 11.376 2.3238 23.934-12.327 24.577-25.859 0.4714-9.9212-4.2073-19.889-11.69-22.33-1.8596-0.60694-2.4592-1.402-2.2928-3.0401 3.2341-31.837 49.13-62.954 90.114-54.711 12.064 2.4266 12.737 3.1168 7.9224 8.1267-5.5225 5.7466-6.2066 17.187-1.9655 22.496 11.024 13.799 30.935 9.5039 33.361-8.0035 1.854-13.382-13.773-20.373-20.042-8.9653-3.4772 6.3276 2.5508 11.219 7.8827 6.7561 2.9662-2.483 4.8017-2.4309 4.5149 0.12734-0.8873 7.9134-16.668 5.8205-17.501-2.321-1.6913-16.529 24.373-18.046 30.002-1.8047 9.5125 27.449-17.414 32.102-56.516 14.323-35.591-16.183-54.848-11.824-66.98 8.7427-4.6053 7.8067-4.9454 11.232-0.6749 14.804 18.785 15.712 8.7756 53.597-15.42 57.384-5.5003 0.8609-7.2243 5.2849-7.076 14.348 0.3907 23.876 14.851 36.371 53.696 40.811 31.34 3.5822 50.844 12.67 50.5 26.312m59.823-189.51c-2.6379 4.172-6.132 4.9041-13.683 6.4961-16.819 3.5462-29.217-19.291-14.012-25.989 7.4897-3.299 17.592 8.4118 11.267 13.25-2.0447 1.564-3.0346 0.0166-2.4351-3.8047 1.0775-6.8694-6.43-8.8656-10.212-2.7155-6.8187 11.087 6.9816 21.217 17.699 12.992 14.021-10.761 7.7867-30.268-9.6569-33.035-6.7108-1.0645-16.191 5.2622-18.458 12.903-1.9759 6.6614-2.9083 6.4178-10.98-2.8709-21.888-25.188-24.963-68.921-10.58-91.189 3.0444-4.7134 8.231-10.441 12.292-13.516 1.314-0.99476 2.2944-0.89278 3.7746 0.39328 8.7642 7.6162 27.145 1.2177 34.368-10.244 5.2958-8.4028 7.069-20.096 1.9061-26.038-1.283-1.4767-1.3884-2.467-0.4036-3.7864 19.143-25.645 73.153-29.133 104.71-1.7117 9.2887 8.072 9.5323 9.0044 2.8709 10.98-7.6409 2.2664-13.967 11.751-12.902 18.462 2.7668 17.443 22.271 23.675 33.033 9.6536 8.2256-10.717-1.9047-24.517-12.992-17.699-6.1502 3.7823-4.1529 11.289 2.7166 10.212 3.8215-0.59951 5.3677 0.391 3.8036 2.4356-4.8381 6.3246-16.548-3.7759-13.249-11.266 6.6975-15.205 29.534-2.8118 25.988 14.008-5.9933 28.426-30.089 18.424-55.306-16.349-22.953-31.651-42.026-37.542-62.726-25.637-7.8571 4.5188-9.9092 7.2787-7.955 12.492 8.5964 22.931-19.136 50.671-42.068 42.075-5.2129-1.9542-7.9706 0.0983-12.489 7.9554-11.905 20.7-6.0091 39.776 25.642 62.729 25.536 18.519 37.331 37.28 30.038 48.814m147.4-135.12c-4.3549 2.3234-8.9553 1.8976-16.246-0.62923-16.242-5.6285-14.726-31.694 1.8028-30.003 8.1416 0.83306 10.235 16.613 2.3221 17.5-2.5583 0.28682-2.6104-1.5487-0.1274-4.5149 4.4633-5.3319-0.4286-11.358-6.7562-7.8804-11.407 6.2687-4.4167 21.896 8.9654 20.041 17.507-2.4256 21.8-22.34 8.0016-33.364-5.3087-4.2411-16.747-3.5542-22.493 1.9684-5.0098 4.8145-5.7001 4.142-8.1267-7.9225-6.5801-32.714 12.498-71.811 35.995-84.086 4.9733-2.598 13.651-5.4774 18.715-6.0265 1.6385-0.17772 2.4258 0.41423 3.0343 2.2783 3.6014 11.038 21.771 15.055 33.699 8.6322 8.7454-4.7088 16.063-13.814 14.488-21.526-0.3912-1.9166 0.01-2.8309 1.51-3.4956 29.277-12.921 78.126 11.327 92.114 50.722 4.1176 11.597 3.871 12.528-2.9008 10.972-7.7676-1.7848-17.945 3.1539-20.316 9.5216-6.1628 16.551 7.7501 31.774 24.016 24.859 12.433-5.2858 10.4-22.284-2.6071-21.8-7.215 0.26839-9.1683 7.7869-2.6571 10.227 3.6221 1.3576 4.4814 2.9805 2.1139 3.9915-7.3231 3.1272-13.278-11.635-6.6038-16.372 13.549-9.6162 27.697 12.231 16.333 25.128-19.206 21.796-35.241 0.82619-40.119-41.85-4.44-38.845-16.933-53.302-40.809-53.692-9.0627-0.1483-13.487 1.5797-14.348 7.0799-3.7873 24.195-41.67 34.214-57.382 15.429-3.5717-4.2704-6.9955-3.929-14.802 0.6763-20.567 12.133-24.924 31.395-8.7405 66.986 13.057 28.716 13.967 50.727 1.9264 57.151m195.34-43.13c-4.9344-0.12409-8.7047-2.8525-13.806-8.6421-11.364-12.897 2.7826-34.746 16.332-25.13 6.674 4.7367 0.7205 19.499-6.6026 16.372-2.3675-1.011-1.5083-2.6339 2.1139-3.9915 6.5111-2.4403 4.5568-9.9589-2.6583-10.227-13.007-0.48389-15.04 16.514-2.6072 21.8 16.266 6.9153 30.179-8.3111 24.016-24.863-2.371-6.3676-12.548-11.302-20.315-9.5177-6.7719 1.5559-7.0183 0.62432-2.9007-10.972 11.165-31.446 46.382-55.809 72.876-54.876 5.6075 0.19744 14.562 2.1308 19.235 4.1556 1.5123 0.65523 1.9055 1.5592 1.5132 3.4804-2.3238 11.376 12.327 23.934 25.859 24.577 9.9212 0.4713 19.889-4.2074 22.33-11.69 0.607-1.8596 1.4021-2.4593 3.0401-2.2928 31.837 3.2341 62.954 49.13 54.711 90.114-2.4266 12.064-3.1167 12.737-8.1266 7.9225-5.7466-5.5225-17.188-6.2066-22.496-1.9656-13.799 11.024-9.5039 30.935 8.0035 33.361 13.382 1.854 20.372-13.773 8.9653-20.042-6.3276-3.4772-11.219 2.5508-6.756 7.8826 2.483 2.9662 2.4309 4.8018-0.1274 4.5149-7.9133-0.88725-5.8205-16.667 2.321-17.501 16.529-1.6913 18.046 24.373 1.8047 30.002-27.449 9.5125-32.102-17.415-14.323-56.516 16.183-35.591 11.824-54.848-8.7426-66.981-7.8068-4.6052-11.232-4.9453-14.804-0.67488-15.712 18.785-53.597 8.7755-57.384-15.42-0.8609-5.5003-5.2849-7.2243-14.348-7.076-23.876 0.39064-36.37 14.851-40.81 53.696-3.5822 31.34-12.671 50.843-26.313 50.5m189.51 59.823c-4.1719-2.6379-4.9039-6.132-6.4959-13.683-3.5462-16.819 19.291-29.217 25.989-14.012 3.2989 7.4897-8.4107 17.592-13.249 11.268-1.5641-2.0447-0.018-3.0351 3.8037-2.4356 6.8694 1.0776 8.8656-6.43 2.7155-10.212-11.087-6.8186-21.217 6.9816-12.992 17.699 10.761 14.021 30.268 7.7867 33.035-9.6568 1.0644-6.7108-5.2623-16.191-12.903-18.458-6.6614-1.9759-6.4178-2.9082 2.871-10.98 25.188-21.888 68.92-24.963 91.189-10.58 4.7133 3.0443 10.442 8.2318 13.516 12.292 0.9947 1.314 0.8918 2.2936-0.3942 3.7738-7.6162 8.7642-1.217 27.146 10.244 34.369 8.4028 5.2957 20.096 7.0682 26.037 1.9053 1.4766-1.283 2.4669-1.3885 3.7863-0.4036 25.644 19.143 29.133 73.153 1.7116 104.71-8.072 9.2888-9.0044 9.5323-10.98 2.8709-2.2664-7.6409-11.751-13.967-18.462-12.902-17.444 2.7668-23.675 22.271-9.6537 33.033 10.717 8.2255 24.518-1.9047 17.699-12.992-3.7823-6.1501-11.289-4.1528-10.212 2.7166 0.5994 3.8215-0.391 5.3678-2.4357 3.8037-6.3246-4.8381 3.7759-16.548 11.266-13.249 15.205 6.6975 2.8118 29.534-14.008 25.988-28.426-5.9933-18.424-30.089 16.349-55.306 31.651-22.953 37.542-42.026 25.637-62.726-4.5188-7.8571-7.2787-9.9093-12.492-7.9551-22.931 8.5964-50.671-19.136-42.075-42.068 1.9542-5.2129-0.098-7.9706-7.9554-12.489-20.7-11.905-39.776-6.0091-62.729 25.642-18.519 25.536-37.28 37.331-48.814 30.038m135.12 147.4c-2.3234-4.355-1.8976-8.9554 0.6292-16.247 5.6285-16.242 31.694-14.725 30.003 1.8039-0.8332 8.1415-16.613 10.234-17.501 2.321-0.2869-2.5583 1.5487-2.6103 4.5149-0.12735 5.3319 4.4633 11.358-0.42756 7.8809-6.7551-6.2686-11.407-21.896-4.4167-20.041 8.9653 2.4257 17.507 22.34 21.801 33.364 8.0017 4.2411-5.3087 3.5536-16.748-1.9689-22.494-4.8145-5.0099-4.142-5.7 7.9224-8.1267 32.714-6.5801 71.812 12.498 84.086 35.995 2.5979 4.9733 5.4774 13.651 6.0265 18.715 0.1776 1.6385-0.414 2.427-2.278 3.0354-11.038 3.6015-15.055 21.771-8.6323 33.699 4.7089 8.7453 13.814 16.063 21.526 14.488 1.9166-0.39125 2.8306 0 3.4953 1.5088 12.921 29.277-11.327 78.126-50.722 92.114-11.597 4.1176-12.528 3.8711-10.972-2.9007 1.7848-7.7676-3.1538-17.944-9.5215-20.315-16.552-6.1629-31.774 7.7501-24.859 24.016 5.2859 12.433 22.284 10.4 21.8-2.6071-0.2684-7.2151-7.787-9.1694-10.227-2.6583-1.3576 3.6222-2.9805 4.4814-3.9915 2.114-3.1272-7.3231 11.636-13.277 16.372-6.6026 9.6163 13.549-12.231 27.696-25.128 16.332-21.796-19.206-0.8262-35.241 41.85-40.119 38.845-4.44 53.302-16.933 53.692-40.809 0.1483-9.0626-1.5794-13.486-7.0797-14.347-24.195-3.7873-34.214-41.67-15.429-57.382 4.2705-3.5717 3.9286-6.9966-0.6766-14.803-12.133-20.567-31.395-24.924-66.986-8.7405-28.716 13.057-50.727 13.967-57.151 1.9265m42.87 214.39c0.5723-6.4972 1.4142-10.071 2.6617-9.9936 1.4118 0.0875 1.6798-0.76949 2.4954 10.517 0.6395 8.8492 3.6729 17.649 6.2803 23.24 2.3795 5.1026 2.3122 6.0717-1.5895 9.9296-7.1528 7.0726-15.857 22.204-13.56 25.005 5.0072 6.1063 17.863 7.5016 33.398 3.625 9.6543-2.4092 8.4597-2.5699 13.709 1.8496 2.6529 2.2336 8.6919 6.6581 13.419 9.8323 4.7272 3.1742 9.8092 7.2976 11.539 8.5822 1.7294 1.2846 3.0578 2.6662 2.9511 3.07-0.211 0.79781-2.7678 1.7821-18.424 2.9489-5.6783 0.42314-13.115 1.285-16.525 1.9156-6.7475 1.2478-5.6296 1.6984-12.832-5.1673-11.589-11.048-23.455-16.188-30.825-13.354-3.3813 1.3-2.8668 17.655-0.3792 27.402 1.3569 5.3166 1.092 6.2569-3.5755 9.4054-5.1144 3.45-12.584 10.669-17.506 18.051-6.2775 9.4155-6.1689 8.518-7.4403 7.8981-2.568-1.2522 7.1954-21.063 13.843-29.366 3.0282-3.7824 2.6192-2.3945 4.3947-13.09 3.5562-21.423 6.3664-27.56 12.737-25.875 0.6983 0.18462 1.3816-0.0857 1.5179-0.60141 0.1364-0.51572-0.3241-1.0884-1.0223-1.2731-6.3703-1.6843-5.5716-8.3492 1.9207-28.732 3.7405-10.176 3.6206-10.043 2.9727-14.845-0.8001-5.9293-0.8959-12.621-0.1602-20.974m-69.298 186.88c3.8222-5.285 6.2514-8.0209 7.2827-7.3148 1.1671 0.7991 1.9627 0.29954-3.1234 10.408-3.9876 7.9256-6.4377 18.066-6.914 24.216-0.4346 5.6133-1.0506 6.3518-6.3446 7.7943-9.7052 2.6444-23.955 10.399-23.422 13.982 1.1633 7.8105 11.039 16.286 26.471 20.551 9.5908 2.6506 8.6297 1.9231 11.026 8.3528 1.2113 3.2496 4.1633 10.147 6.5911 15.298 2.4279 5.1504 5.1288 10.976 6.0022 12.945 0.8733 1.9694 1.3498 3.8258 1.0582 4.1247-0.5763 0.59078-3.3618 0.12747-17.562-6.5665-5.1505-2.4279-12.047-5.3784-15.296-6.5898-6.4298-2.3967-5.7022-1.4357-8.3529-11.026-4.2651-15.433-12.742-25.309-20.553-26.473-3.583-0.53365-11.334 13.721-13.978 23.426-1.4424 5.294-2.1797 5.9114-7.7931 6.3461-6.1508 0.47621-16.288 2.9293-24.214 6.917-10.109 5.0861-9.6082 4.2921-10.407 3.1249-1.6141-2.3574 16.771-14.553 26.651-18.493 4.5006-1.795 4.3693-1.7069 11.393-9.9654 14.069-16.542 19.227-20.728 23.828-16.011 0.5044 0.517 0.3705 1.5123 0.743 1.1305 0.3725-0.38186 0.2536-1.107-0.2634-1.6113-4.7167-4.6011-0.5349-9.7625 16.007-23.832 8.2584-7.024 8.1689-6.8939 9.9639-11.394 2.2165-5.5573 6.2919-12.545 11.206-19.34m-154.32 128.04c5.9339-2.7074 9.438-3.8211 9.9859-2.6976 0.6199 1.2714 1.5182 1.1645-7.8973 7.4419-7.3819 4.9217-14.6 12.395-18.05 17.51-3.1486 4.6675-4.0882 4.9342-9.4047 3.5773-9.7466-2.4876-26.1-2.9967-27.4 0.38456-2.8337 7.3708 2.3067 19.236 13.354 30.825 6.8657 7.2021 6.4151 6.0842 5.1672 12.832-0.6306 3.4102-1.4924 10.847-1.9155 16.525-0.4232 5.6783-1.4761 12.204-1.7381 14.342-0.2621 2.1384-0.8066 3.976-1.2103 4.0828-0.7978 0.211-2.9001-1.4546-11.652-14.488-3.1743-4.7273-7.5987-10.766-9.8324-13.419-4.4195-5.2492-4.2587-4.0545-1.8496-13.709 3.8767-15.535 2.4813-28.39-3.625-33.398-2.8012-2.297-17.932 6.4108-25.004 13.564-3.8578 3.9017-4.8266 3.9709-9.9292 1.5914-5.5911-2.6074-14.39-5.6352-23.239-6.2746-11.287-0.81568-10.43-1.0818-10.517-2.4935-0.1769-2.8516 20.426-3.9314 30.967-2.509 4.8017 0.64792 4.6688 0.76599 14.844-2.9745 20.382-7.4923 27.046-8.2965 28.73-1.9263 0.1846 0.69828 0.7574 1.1587 1.2731 1.0223 0.5157-0.13637 0.786-0.81961 0.6014-1.5179-1.6842-6.3703 4.4511-9.1858 25.874-12.742 10.695-1.7754 9.3058-1.37 13.088-4.3982 4.6706-3.7393 11.748-7.6696 19.378-11.151m-197.73 33.539c6.4971 0.57223 10.071 1.4142 9.9935 2.6617-0.087 1.4118 0.7695 1.6798-10.517 2.4954-8.8492 0.63949-17.649 3.6728-23.24 6.2802-5.1026 2.3795-6.0716 2.3122-9.9295-1.5895-7.0726-7.1528-22.204-15.857-25.005-13.56-6.1064 5.0072-7.5016 17.863-3.625 33.398 2.4091 9.6542 2.5699 8.4596-1.8497 13.709-2.2336 2.653-6.6581 8.692-9.8323 13.419-3.1742 4.7272-7.2976 9.8092-8.5823 11.539-1.2846 1.7294-2.6661 3.0578-3.0698 2.951-0.7979-0.2109-1.7822-2.7678-2.9489-18.423-0.4232-5.6784-1.285-13.115-1.9156-16.525-1.2478-6.7475-1.6984-5.6295 5.1672-12.832 11.048-11.589 16.188-23.455 13.355-30.825-1.3001-3.3813-17.655-2.8669-27.402-0.37934-5.3165 1.357-6.2569 1.092-9.4054-3.5755-3.4499-5.1144-10.669-12.584-18.051-17.506-9.4155-6.2775-8.518-6.1689-7.8981-7.4403 1.2521-2.5681 21.062 7.195 29.365 13.843 3.7825 3.0282 2.3956 2.6198 13.091 4.3952 21.423 3.5563 27.56 6.3665 25.875 12.737-0.1846 0.69823 0.086 1.3816 0.6015 1.5179 0.5157 0.13638 1.0884-0.32405 1.273-1.0223 1.6842-6.3703 8.3492-5.5715 28.732 1.9208 10.176 3.7405 10.043 3.6206 14.845 2.9727 5.9293-0.80002 12.621-0.89585 20.974-0.16009m-186.88-69.28c5.285 3.8222 8.0209 6.2514 7.3148 7.2828-0.7991 1.1671-0.3005 1.9619-10.409-3.1241-7.9256-3.9876-18.066-6.4379-24.216-6.9141-5.6133-0.43462-6.351-1.0499-7.7933-6.3439-2.6445-9.7052-10.399-23.955-13.982-23.422-7.8106 1.1633-16.286 11.039-20.552 26.471-2.6505 9.5907-1.923 8.6297-8.3528 11.026-3.2496 1.2113-10.147 4.1632-15.298 6.5911-5.1505 2.4279-10.976 5.1287-12.945 6.0021-1.9695 0.87337-3.8258 1.3499-4.1248 1.0583-0.5907-0.57622-0.1274-3.3619 6.5665-17.562 2.4279-5.1505 5.3785-12.047 6.5898-15.296 2.3968-6.4298 1.4358-5.7022 11.026-8.3528 15.433-4.2652 25.309-12.742 26.473-20.553 0.5337-3.583-13.721-11.334-23.426-13.978-5.294-1.4425-5.9115-2.1798-6.3461-7.7931-0.4762-6.1508-2.9293-16.289-6.9169-24.214-5.0861-10.109-4.2921-9.6083-3.1249-10.407 2.3574-1.614 14.552 16.771 18.493 26.65 1.7951 4.5006 1.7078 4.3703 9.9661 11.394 16.542 14.069 20.728 19.227 16.011 23.828-0.517 0.50435-1.5122 0.37055-1.1304 0.74301 0.3818 0.37252 1.107 0.25353 1.6113-0.26348 4.6011-4.7167 9.7625-0.53482 23.832 16.007 7.024 8.2584 6.8939 8.1688 11.394 9.9639 5.5574 2.2165 12.545 6.2919 19.34 11.206m-128.03-154.32c2.7074 5.9338 3.8211 9.438 2.6976 9.9858-1.2714 0.6199-1.165 1.5171-7.4424-7.8983-4.9218-7.382-12.395-14.6-17.51-18.05-4.6675-3.1485-4.9341-4.0883-3.5772-9.4047 2.4876-9.7467 2.9968-26.1-0.3845-27.4-7.3708-2.8338-19.236 2.3068-30.825 13.355-7.2021 6.8657-6.0839 6.4162-12.831 5.1683-3.4102-0.63059-10.847-1.4935-16.525-1.9167-5.6783-0.42314-12.204-1.4761-14.342-1.7381-2.1385-0.262-3.976-0.80653-4.0828-1.2102-0.2109-0.79781 1.4547-2.9 14.488-11.652 4.7272-3.1742 10.766-7.5987 13.419-9.8323 5.2492-4.4195 4.0546-4.2587 13.709-1.8496 15.535 3.8766 28.39 2.4813 33.398-3.625 2.2971-2.8012-6.4105-17.93-13.563-25.003-3.9018-3.8579-3.9709-4.8266-1.5913-9.9292 2.6073-5.5912 5.6351-14.39 6.2746-23.239 0.8156-11.287 1.0817-10.431 2.4934-10.518 2.8516-0.17682 3.9313 20.426 2.509 30.967-0.6479 4.8018-0.7661 4.6688 2.9744 14.845 7.4924 20.383 8.2965 27.046 1.9262 28.73-0.6982 0.18462-1.1587 0.75736-1.0223 1.273 0.1363 0.51573 0.8199 0.78721 1.5182 0.60259 6.3703-1.6843 9.1855 4.4499 12.742 25.873 1.7754 10.695 1.3703 9.3069 4.3986 13.089 3.7393 4.6706 7.6696 11.748 11.151 19.378m-33.56-197.74c-0.5723 6.4972-1.4142 10.071-2.6618 9.9936-1.4117-0.0875-1.6796 0.76822-2.4953-10.519-0.6394-8.8492-3.6729-17.649-6.2803-23.24-2.3795-5.1026-2.3124-6.0706 1.5893-9.9284 7.1528-7.0726 15.857-22.204 13.56-25.005-5.0072-6.1063-17.863-7.5015-33.398-3.625-9.6542 2.4091-8.4596 2.57-13.709-1.8496-2.653-2.2336-8.6919-6.6581-13.419-9.8324-4.7272-3.1742-9.8093-7.2975-11.539-8.5822-1.7295-1.2847-3.0578-2.6662-2.9511-3.07 0.211-0.79781 2.7678-1.7821 18.424-2.9489 5.6783-0.4232 13.115-1.2861 16.525-1.9168 6.7475-1.2478 5.6293-1.6972 12.831 5.1684 11.589 11.048 23.455 16.188 30.825 13.355 3.3813-1.3 2.8667-17.655 0.3791-27.402-1.3569-5.3166-1.092-6.2568 3.5755-9.4054 5.1144-3.4499 12.584-10.669 17.506-18.051 6.2775-9.4154 6.1689-8.518 7.4402-7.8981 2.568 1.2521-7.1948 21.062-13.842 29.365-3.0282 3.7825-2.6196 2.3957-4.3951 13.091-3.5563 21.423-6.366 27.559-12.736 25.874-0.6982-0.1846-1.3819 0.0869-1.5182 0.60264-0.1364 0.51571 0.324 1.0884 1.0223 1.273 6.3703 1.6843 5.5717 8.3492-1.9207 28.732-3.7404 10.176-3.6204 10.043-2.9726 14.845 0.8001 5.9293 0.8961 12.621 0.1604 20.974m69.296-186.87c-3.8221 5.285-6.2513 8.021-7.2827 7.3148-1.1671-0.79909-1.962-0.30052 3.1241-10.409 3.9876-7.9256 6.4378-18.066 6.9139-24.216 0.4347-5.6134 1.05-6.351 6.3439-7.7935 9.7053-2.6444 23.955-10.399 23.422-13.982-1.1633-7.8105-11.038-16.286-26.471-20.551-9.5908-2.6506-8.6297-1.923-11.026-8.3528-1.2113-3.2496-4.1633-10.147-6.5912-15.298-2.4278-5.1505-5.1287-10.976-6.0021-12.945-0.8733-1.9694-1.3498-3.8259-1.0582-4.1248 0.5762-0.59073 3.3618-0.12741 17.562 6.5665 5.1505 2.4279 12.048 5.3776 15.297 6.5889 6.4297 2.3967 5.7013 1.4366 8.3519 11.027 4.2652 15.433 12.742 25.309 20.553 26.473 3.583 0.53365 11.334-13.721 13.978-23.426 1.4425-5.294 2.1798-5.9115 7.7932-6.3461 6.1508-0.47621 16.288-2.9294 24.214-6.9171 10.109-5.0861 9.6082-4.2921 10.407-3.1249 1.6141 2.3574-16.77 14.552-26.65 18.493-4.5005 1.795-4.3702 1.7078-11.394 9.9662-14.069 16.542-19.226 20.727-23.827 16.011-0.5043-0.517-0.3713-1.5114-0.7439-1.1296-0.3725 0.38185-0.2535 1.107 0.2635 1.6113 4.7167 4.6011 0.535 9.7625-16.007 23.832-8.2583 7.024-8.1688 6.8939-9.9638 11.394-2.2165 5.5573-6.2919 12.545-11.206 19.34m154.32-128.05c-5.9339 2.7074-9.438 3.8211-9.9858 2.6976-0.6199-1.2714-1.5172-1.165 7.8983-7.4424 7.3819-4.9217 14.6-12.395 18.05-17.51 3.1486-4.6675 4.0871-4.9338 9.4036-3.5768 9.7466 2.4875 26.1 2.9966 27.4-0.38468 2.8337-7.3708-2.3066-19.236-13.354-30.825-6.8656-7.2022-6.415-6.0842-5.1672-12.832 0.6307-3.4102 1.4924-10.847 1.9156-16.525 0.4232-5.6783 1.4761-12.204 1.7381-14.343 0.262-2.1384 0.8065-3.976 1.2102-4.0828 0.7978-0.21089 2.9001 1.4546 11.652 14.488 3.1742 4.7272 7.5999 10.766 9.8336 13.419 4.4195 5.2492 4.2576 4.0548 1.8484 13.709-3.8766 15.535-2.4812 28.39 3.625 33.398 2.8013 2.297 17.932-6.4108 25.004-13.564 3.8579-3.9017 4.8266-3.971 9.9292-1.5914 5.5911 2.6074 14.39 5.635 23.239 6.2745 11.287 0.81562 10.43 1.0817 10.517 2.4935 0.1768 2.8516-20.425 3.9313-30.966 2.509-4.8018-0.64792-4.67-0.76574-14.846 2.9747-20.382 7.4923-27.045 8.2963-28.729 1.926-0.1847-0.69828-0.7585-1.1584-1.2743-1.022-0.5157 0.13638-0.786 0.81968-0.6013 1.518 1.6842 6.3702-4.4511 9.1858-25.874 12.742-10.695 1.7754-9.3057 1.37-13.088 4.3983-4.6706 3.7393-11.748 7.6696-19.378 11.151m197.73-33.54c-6.4972-0.57229-10.071-1.4142-9.9937-2.6618 0.088-1.4117-0.7682-1.6797 10.519-2.4953 8.8492-0.63943 17.649-3.6728 23.24-6.2802 5.1027-2.3795 6.0705-2.3124 9.9284 1.5893 7.0727 7.1529 22.204 15.857 25.005 13.56 6.1063-5.0072 7.5016-17.863 3.625-33.398-2.4092-9.6543-2.57-8.4597 1.8496-13.709 2.2336-2.653 6.6581-8.692 9.8324-13.419 3.1742-4.7272 7.2975-9.8093 8.5821-11.539 1.2847-1.7295 2.6663-3.0578 3.07-2.9511 0.7977 0.21089 1.7821 2.7678 2.9489 18.423 0.4232 5.6783 1.286 13.115 1.9167 16.525 1.2478 6.7475 1.6973 5.6292-5.1683 12.831-11.048 11.589-16.188 23.455-13.355 30.825 1.3 3.3814 17.655 2.8668 27.402 0.37928 5.3165-1.357 6.2568-1.0921 9.4054 3.5755 3.4499 5.1144 10.669 12.584 18.051 17.506 9.4154 6.2775 8.518 6.1688 7.8981 7.4402-1.2522 2.568-21.062-7.195-29.365-13.843-3.7824-3.0283-2.3956-2.6197-13.091-4.3952-21.423-3.5563-27.559-6.3661-25.874-12.736 0.1846-0.69829-0.087-1.3819-0.6027-1.5182-0.5157-0.13638-1.0884 0.32405-1.273 1.0223-1.6843 6.3702-8.3492 5.5716-28.732-1.9208-10.176-3.7405-10.043-3.6205-14.845-2.9726-5.9293 0.80002-12.621 0.89591-20.974 0.16021m186.88 69.297c-5.285-3.8222-8.0209-6.2514-7.3148-7.2827 0.7991-1.1671 0.3005-1.962 10.409 3.1241 7.9256 3.9876 18.066 6.4378 24.216 6.914 5.6134 0.43468 6.351 1.05 7.7934 6.3439 2.6444 9.7053 10.399 23.955 13.982 23.422 7.8106-1.1632 16.286-11.039 20.552-26.471 2.6505-9.5907 1.923-8.6297 8.3528-11.026 3.2496-1.2114 10.147-4.1632 15.298-6.5911 5.1504-2.4279 10.976-5.1288 12.945-6.0021 1.9695-0.87337 3.8258-1.3499 4.1247-1.0583 0.5907 0.57622 0.1274 3.3618-6.5665 17.562-2.4279 5.1505-5.3776 12.048-6.5889 15.297-2.3968 6.4298-1.4366 5.7013-11.027 8.3519-15.433 4.2652-25.309 12.742-26.473 20.553-0.5336 3.583 13.721 11.334 23.426 13.978 5.294 1.4424 5.9115 2.1798 6.3461 7.7932 0.4762 6.1508 2.9293 16.288 6.917 24.214 5.0861 10.109 4.292 9.6082 3.1249 10.407-2.3574 1.614-14.552-16.77-18.493-26.65-1.795-4.5006-1.7078-4.3703-9.9661-11.394-16.542-14.069-20.727-19.226-16.01-23.827 0.517-0.50435 1.5114-0.37142 1.1296-0.74387-0.3819-0.37252-1.107-0.25353-1.6113 0.26348-4.6012 4.7167-9.7625 0.53488-23.832-16.007-7.0239-8.2584-6.8938-8.1689-11.394-9.9639-5.5573-2.2165-12.544-6.2919-19.34-11.206m128.04 154.32c-2.7074-5.9338-3.8206-9.4369-2.6971-9.9847 1.2714-0.6199 1.1644-1.5182 7.4419 7.8973 4.9217 7.382 12.395 14.6 17.51 18.05 4.6674 3.1485 4.9341 4.0882 3.5772 9.4047-2.4876 9.7467-2.9967 26.1 0.3846 27.4 7.3708 2.8338 19.236-2.3067 30.825-13.354 7.2021-6.8657 6.0838-6.4163 12.831-5.1684 3.4101 0.63065 10.847 1.4936 16.525 1.9168 5.6783 0.4232 12.204 1.4762 14.342 1.7381 2.1385 0.26206 3.976 0.80652 4.0827 1.2102 0.211 0.79774-1.4545 2.9-14.488 11.652-4.7272 3.1743-10.766 7.5987-13.419 9.8324-5.2492 4.4195-4.0546 4.2587-13.709 1.8496-15.535-3.8766-28.39-2.4813-33.398 3.625-2.297 2.8012 6.4109 17.932 13.564 25.004 3.9018 3.8579 3.9708 4.8254 1.5912 9.9281-2.6074 5.5911-5.6351 14.39-6.2746 23.239-0.8156 11.287-1.0816 10.431-2.4933 10.518-2.8516 0.17682-3.9314-20.426-2.5091-30.967 0.6478-4.8018 0.7659-4.6689-2.9746-14.845-7.4923-20.383-8.2965-27.046-1.9262-28.731 0.6982-0.1846 1.1587-0.75732 1.0223-1.273-0.1363-0.51572-0.8199-0.78718-1.5182-0.60258-6.3703 1.6843-9.1855-4.4499-12.742-25.873-1.7754-10.695-1.3704-9.3069-4.3987-13.089-3.7393-4.6705-7.6696-11.748-11.151-19.378m35.431 254.65c0.2625-0.87251 1.6813-2.3606 4.342-4.4302 10.395-8.086 16.039-18.09 15.041-27.561-0.6631-6.292 0.4406-6.5744 4.4534-2.9379 12.884 11.676 54.271 15.28 68.218 5.9415 1.5163-1.0152 2.1075-0.98474 3.1591 0.16194 2.181 2.3783 1.0879 5.092-6.1573 10.545-15.515 11.677-27.56 15.432-53.059 13.703-12.343-0.83679-17.28-0.81679-25.464 2.6041-7.3226 3.0609-11.034 3.6395-10.533 1.9738m-5.2011 19.395c0.3876-1.6957 3.7255-0.33283 8.4238 6.0638 5.2509 7.1489 9.3953 10.315 20.539 15.687 23.023 11.098 31.504 20.26 39.226 38.076 3.6063 8.32 3.1507 11.185 0.08 12.176-1.4806 0.47787-2.0098 0.21249-2.8271-1.419-7.518-15.008-45.288-32.308-62.256-28.517-5.285 1.1809-5.9094-0.45711-2.1007-5.5091 5.7329-7.6045 5.5093-19.291 0.767-31.578-1.2138-3.1447-2.055-4.0917-1.8521-4.98m-93.581 161.83c0.6577-0.63059 2.6249-1.2285 5.9594-1.7218 13.028-1.9276 23.089-7.6446 26.874-16.384 2.5139-5.8059 4.2466-6.0714 5.8281-0.89204 5.0775 16.629 39.342 40.562 56.078 39.281 1.8195-0.13927 2.3194 0.17772 2.6719 1.6932 0.7312 3.143-1.6417 4.9034-10.631 6.0929-19.25 2.5473-31.756-0.23804-53.111-14.279-10.337-6.7964-14.719-9.2819-23.527-10.328-7.8813-0.9364-11.397-2.2579-10.142-3.4617m-13.365 13.369c1.2038-1.2556 2.5262 2.2595 3.4626 10.141 1.0465 8.8081 3.5324 13.192 10.329 23.529 14.041 21.355 16.83 33.863 14.282 53.113-1.1896 8.9895-2.9488 11.364-6.0918 10.633-1.5154-0.35255-1.8323-0.85248-1.6931-2.6719 1.281-16.736-22.653-51.002-39.282-56.079-5.1794-1.5815-4.9139-3.3142 0.8919-5.8282 8.7393-3.7842 14.452-13.849 16.379-26.877 0.4933-3.3345 1.0912-5.3017 1.7218-5.9594m-161.81 93.611c0.8882-0.20297 1.8347 0.63649 4.9794 1.8503 12.286 4.7422 23.973 4.9602 31.577-0.77268 5.052-3.8087 6.6899-3.1844 5.509 2.1008-3.7914 16.969 13.509 54.738 28.517 62.256 1.6315 0.8173 1.897 1.3464 1.419 2.8271-0.9912 3.0709-3.8554 3.5282-12.175-0.078-17.816-7.7224-26.978-16.2-38.076-39.222-5.3719-11.144-8.5365-15.289-15.685-20.54-6.3966-4.6984-7.7601-8.0341-6.0644-8.4216m-19.394 5.2046c1.6657-0.50116 1.0882 3.2098-1.9727 10.532-3.4209 8.1839-3.4416 13.123-2.6048 25.466 1.7287 25.5-2.0242 37.548-13.701 53.063-5.453 7.2451-8.1663 8.3402-10.545 6.1591-1.1466-1.0516-1.1771-1.6428-0.1618-3.159 9.3385-13.948 5.734-55.335-5.9415-68.218-3.6365-4.0128-3.3544-5.1183 2.9376-4.4552 9.4709 0.99807 19.473-4.6506 27.559-15.046 2.0695-2.6606 3.5576-4.0795 4.4302-4.342m-186.81 0.0172c0.8725 0.26249 2.3606 1.6812 4.4302 4.342 8.0859 10.395 18.09 16.039 27.561 15.041 6.2919-0.66303 6.5743 0.44064 2.9379 4.4534-11.675 12.884-15.28 54.27-5.9415 68.218 1.0153 1.5163 0.9848 2.1075-0.1619 3.1591-2.3782 2.1811-5.092 1.0878-10.545-6.1573-11.677-15.515-15.432-27.56-13.703-53.059 0.8368-12.343 0.8167-17.28-2.6042-25.464-3.0609-7.3226-3.6395-11.034-1.9737-10.533m-19.395-5.2011c1.6957 0.38757 0.3328 3.7254-6.0638 8.4237-7.1488 5.251-10.315 9.3953-15.687 20.539-11.098 23.023-20.26 31.504-38.076 39.226-8.32 3.6062-11.185 3.1507-12.176 0.08-0.4779-1.4807-0.2125-2.0098 1.4189-2.8271 15.008-7.518 32.308-45.288 28.517-62.256-1.1809-5.2851 0.4572-5.9094 5.5092-2.1008 7.6044 5.7329 19.291 5.5093 31.578 0.76709 3.1447-1.2138 4.0917-2.055 4.98-1.852m-161.84-93.57c0.6306 0.65768 1.2285 2.6249 1.7219 5.9594 1.9276 13.028 7.6446 23.089 16.384 26.874 5.8059 2.5139 6.0714 4.2467 0.8921 5.8282-16.629 5.0775-40.562 39.342-39.281 56.078 0.1393 1.8195-0.1777 2.3193-1.6931 2.6719-3.1431 0.73121-4.9034-1.6418-6.0929-10.631-2.5474-19.25 0.238-31.756 14.279-53.111 6.7965-10.337 9.282-14.719 10.329-23.527 0.9364-7.8812 2.2579-11.397 3.4617-10.142m-13.369-13.36c1.2556 1.2039-2.2595 2.5262-10.141 3.4626-8.8081 1.0465-13.192 3.5324-23.529 10.329-21.356 14.041-33.863 16.83-53.113 14.282-8.9896-1.1896-11.364-2.9488-10.633-6.0918 0.3525-1.5154 0.8525-1.8324 2.6719-1.6931 16.737 1.281 51.002-22.653 56.08-39.282 1.5814-5.1794 3.3141-4.9139 5.8282 0.89204 3.7841 8.7392 13.849 14.452 26.877 16.379 3.3345 0.49342 5.3017 1.0913 5.9594 1.7218m-93.611-161.82c0.203 0.88828-0.6364 1.8348-1.8503 4.9794-4.7422 12.286-4.9606 23.972 0.7723 31.576 3.8086 5.052 3.1848 6.6911-2.1003 5.5102-16.969-3.7915-54.739 13.508-62.257 28.516-0.8173 1.6315-1.346 1.898-2.8266 1.4201-3.071-0.99125-3.5286-3.8565 0.078-12.176 7.7224-17.817 16.2-26.977 39.223-38.075 11.144-5.3718 15.289-8.5366 20.54-15.686 4.6983-6.3966 8.034-7.7601 8.4216-6.0644m-5.2046-19.394c0.5011 1.6657-3.2101 1.0871-10.533-1.9738-8.1839-3.4209-13.123-3.4404-25.466-2.6037-25.499 1.7288-37.548-2.0242-53.063-13.701-7.2451-5.453-8.3403-8.1676-6.1593-10.546 1.0516-1.1467 1.6428-1.1771 3.1591-0.16191 13.948 9.3385 55.335 5.7339 68.218-5.9415 4.0128-3.6365 5.1183-3.3542 4.4552 2.9377-0.9981 9.4709 4.6508 19.474 15.046 27.56 2.6606 2.0696 4.0794 3.5577 4.3419 4.4302m-0.018-186.81c-0.2625 0.87251-1.6813 2.3606-4.3419 4.4302-10.395 8.0859-16.039 18.09-15.041 27.561 0.663 6.292-0.4406 6.5745-4.4534 2.938-12.884-11.675-54.27-15.28-68.218-5.9415-1.5163 1.0152-2.1075 0.98474-3.159-0.16193-2.1811-2.3783-1.0879-5.092 6.1572-10.545 15.515-11.677 27.56-15.432 53.059-13.703 12.343 0.83681 17.28 0.81679 25.464-2.6041 7.3227-3.0609 11.034-3.6396 10.533-1.9738m5.2009-19.395c-0.3875 1.6958-3.7254 0.33278-8.4238-6.0637-5.2509-7.1489-9.3952-10.315-20.539-15.687-23.023-11.098-31.504-20.26-39.226-38.076-3.6062-8.32-3.1508-11.185-0.08-12.176 1.4806-0.47794 2.0098-0.21249 2.827 1.4191 7.5181 15.008 45.288 32.308 62.256 28.517 5.2851-1.181 5.9094 0.4571 2.1007 5.5091-5.7329 7.6044-5.5092 19.291-0.7669 31.578 1.2138 3.1447 2.0551 4.0917 1.852 4.98m93.58-161.83c-0.6577 0.63053-2.6249 1.2284-5.9594 1.7218-13.028 1.9276-23.089 7.6447-26.873 16.384-2.514 5.8058-4.2467 6.0713-5.8281 0.89198-5.0775-16.629-39.342-40.562-56.078-39.281-1.8194 0.1392-2.3194-0.17772-2.672-1.6931-0.7312-3.1431 1.6418-4.9034 10.631-6.093 19.25-2.5473 31.756 0.23799 53.111 14.279 10.337 6.7964 14.719 9.2818 23.527 10.328 7.8813 0.93639 11.397 2.2579 10.142 3.4618m13.363-13.36c-1.2038 1.2557-2.5262-2.2595-3.4626-10.141-1.0465-8.8082-3.5323-13.192-10.329-23.529-14.041-21.355-16.83-33.863-14.282-53.113 1.1895-8.9895 2.9487-11.364 6.0918-10.633 1.5154 0.35255 1.8324 0.85248 1.6932 2.6719-1.2811 16.736 22.653 51.002 39.282 56.08 5.1793 1.5814 4.9138 3.3142-0.892 5.8282-8.7393 3.7842-14.452 13.849-16.379 26.877-0.4934 3.3345-1.0913 5.3017-1.7219 5.9594m161.82-93.61c-0.8882 0.20303-1.8347-0.63643-4.9794-1.8502-12.286-4.7423-23.972-4.9602-31.577 0.77275-5.052 3.8087-6.6901 3.1843-5.5092-2.1008 3.7916-16.969-13.509-54.738-28.517-62.256-1.6316-0.81734-1.8969-1.3464-1.419-2.8271 0.9912-3.0709 3.8554-3.5282 12.175 0.078 17.817 7.7224 26.978 16.2 38.076 39.222 5.3719 11.144 8.5365 15.289 15.685 20.54 6.3966 4.6984 7.7601 8.0341 6.0644 8.4216m19.394-5.2046c-1.6657 0.50115-1.087-3.2101 1.9738-10.533 3.4209-8.1839 3.4405-13.123 2.6037-25.466-1.7288-25.499 2.0242-37.548 13.701-53.063 5.453-7.2451 8.1662-8.3402 10.545-6.1591 1.1466 1.0516 1.1772 1.6427 0.1619 3.159-9.3385 13.948-5.734 55.335 5.9415 68.218 3.6365 4.0129 3.3544 5.1184-2.9376 4.4553-9.4709-0.99807-19.473 4.6507-27.559 15.046-2.0695 2.6606-3.5577 4.0794-4.4302 4.342m186.81-0.0178c-0.8725-0.2625-2.3606-1.6812-4.4302-4.342-8.0859-10.395-18.09-16.039-27.561-15.041-6.292 0.66309-6.5744-0.44058-2.9379-4.4534 11.675-12.884 15.28-54.27 5.9415-68.218-1.0153-1.5163-0.9848-2.1075 0.1619-3.159 2.3782-2.1811 5.0919-1.0879 10.545 6.1572 11.677 15.515 15.432 27.56 13.703 53.059-0.8368 12.343-0.8168 17.28 2.6041 25.464 3.061 7.3226 3.6395 11.034 1.9738 10.533m19.395 5.201c-1.6957-0.38757-0.3316-3.725 6.0649-8.4234 7.1489-5.2509 10.314-9.3956 15.686-20.54 11.098-23.023 20.26-31.504 38.076-39.226 8.32-3.6062 11.185-3.1507 12.176-0.0798 0.478 1.4807 0.2125 2.0098-1.419 2.8271-15.008 7.5181-32.308 45.288-28.517 62.256 1.181 5.2851-0.4571 5.9094-5.509 2.1008-7.6045-5.7329-19.291-5.5093-31.578-0.76703-3.1447 1.2138-4.0917 2.055-4.98 1.852m161.83 93.581c-0.6306-0.65768-1.2284-2.6249-1.7218-5.9594-1.9277-13.028-7.6446-23.089-16.384-26.873-5.8058-2.514-6.0714-4.2467-0.892-5.8282 16.629-5.0775 40.562-39.342 39.281-56.078-0.1392-1.8195 0.1778-2.3194 1.6931-2.672 3.1432-0.73115 4.9035 1.6418 6.093 10.631 2.5473 19.25-0.238 31.756-14.279 53.111-6.7964 10.337-9.2818 14.719-10.328 23.527-0.9364 7.8812-2.2579 11.397-3.4618 10.142m13.369 13.365c-1.2556-1.2039 2.2603-2.5253 10.142-3.4618 8.8081-1.0465 13.191-3.5333 23.528-10.33 21.356-14.041 33.863-16.83 53.113-14.282 8.9895 1.1896 11.365 2.9498 10.634 6.0928-0.3525 1.5154-0.8532 1.8314-2.6726 1.6922-16.736-1.281-51.002 22.653-56.08 39.282-1.5815 5.1794-3.3142 4.9138-5.8283-0.89204-3.7841-8.7392-13.849-14.452-26.877-16.379-3.3344-0.49341-5.3016-1.0913-5.9593-1.7218m93.611 161.81c-0.203-0.88823 0.6364-1.8347 1.8503-4.9794 4.7422-12.286 4.9606-23.971-0.7724-31.576-3.8086-5.052-3.1843-6.69 2.1007-5.5091 16.969 3.7914 54.738-13.509 62.256-28.517 0.8173-1.6315 1.3459-1.898 2.8266-1.4201 3.0709 0.99119 3.5287 3.8565-0.078 12.176-7.7224 17.817-16.2 26.977-39.223 38.075-11.144 5.3718-15.289 8.5366-20.54 15.686-4.6983 6.3966-8.034 7.76-8.4216 6.0643m5.2047 19.394c-0.5012-1.6657 3.2101-1.0872 10.533 1.9738 8.1839 3.4208 13.123 3.4404 25.466 2.6037 25.499-1.7288 37.548 2.0254 53.063 13.703 7.2451 5.453 8.3401 8.1664 6.1591 10.545-1.0516 1.1467-1.6428 1.1771-3.159 0.16187-13.948-9.3385-55.335-5.734-68.218 5.9415-4.0128 3.6365-5.1183 3.3543-4.4552-2.9376 0.9981-9.4709-4.6509-19.474-15.046-27.56-2.6606-2.0696-4.0794-3.5577-4.3419-4.4302m12.989 200.67c-1.1079 2.7679 24.291 11.004 34.66 10.975 2.6164-0.007 4.8234-0.26089 4.9032-0.5627 0.2337-0.88381-7.6511-5.1056-13.612-7.2885-4.7948-1.7558-24.043-4.3816-25.59-3.4909-0.1877 0.10804-0.307 0.23121-0.3615 0.36734m-106.81 185.2c-2.3721 1.8061 15.191 21.917 24.104 27.217 2.2489 1.3372 4.4645 2.071 4.6825 1.8475 0.6384-0.65436-4.1479-8.2098-8.2627-13.043-3.3099-3.8881-18.774-15.646-20.559-15.632-0.2166 0 0.1515-0.47757 0.035-0.38874m-185.74 107.34c-2.9538 0.40489 2.4391 26.555 7.59 35.555 1.2996 2.2708 2.6106 4.0641 2.9124 3.9843 0.8839-0.2337 0.657-9.1747-0.3914-15.435-0.8434-5.0359-8.074-23.067-9.613-23.972-0.1867-0.10972-0.3528-0.1526-0.498-0.13269m-214.44-0.006c-2.7679-1.1078-11.004 24.291-10.975 34.66 0.01 2.6165 0.261 4.8234 0.5627 4.9032 0.8839 0.2337 5.1057-7.6511 7.2886-13.612 1.7558-4.7947 4.3816-24.043 3.4908-25.59-0.1081-0.18768-0.2312-0.30697-0.3674-0.36153m-185.21-106.8c-1.8061-2.3721-21.917 15.191-27.217 24.105-1.3372 2.2488-2.0709 4.4646-1.8475 4.6825 0.6543 0.63839 8.2098-4.148 13.043-8.2627 3.8881-3.3099 15.646-18.774 15.632-20.559 0-0.21655 0.4776 0.15155 0.3887 0.035m-107.34-185.74c-0.4049-2.9538-26.555 2.4391-35.555 7.59-2.2708 1.2996-4.0644 2.6095-3.9847 2.9113 0.2337 0.88381 9.1748 0.657 15.435-0.39144 5.036-0.84333 23.067-8.074 23.972-9.613 0.1098-0.18666 0.1529-0.35158 0.133-0.49685m0.01-214.44c1.1079-2.7679-24.291-11.004-34.66-10.975-2.6163 0.007-4.8233 0.26096-4.9031 0.56271-0.2337 0.88381 7.6511 5.1056 13.612 7.2884 4.7947 1.7558 24.043 4.3817 25.59 3.4909 0.1876-0.10806 0.3069-0.23123 0.3614-0.36736m106.81-185.2c2.3722-1.8061-15.192-21.917-24.104-27.217-2.2488-1.3372-4.4644-2.0709-4.6825-1.8474-0.6383 0.65437 4.148 8.2098 8.2628 13.043 3.3099 3.888 18.774 15.646 20.559 15.632 0.2165 0-0.1516 0.47756-0.035 0.38873m185.75-107.34c2.9538-0.40489-2.439-26.555-7.59-35.555-1.2996-2.2707-2.6107-4.0641-2.9125-3.9843-0.8838 0.23368-0.657 9.1747 0.3915 15.435 0.8434 5.0359 8.074 23.067 9.613 23.972 0.1867 0.10972 0.3527 0.1526 0.498 0.13269m214.44 0.006c2.7679 1.1079 11.004-24.291 10.975-34.66-0.01-2.6164-0.261-4.8234-0.5627-4.9031-0.8838-0.23368-5.1056 7.6511-7.2884 13.612-1.7559 4.7948-4.3817 24.043-3.4909 25.59 0.108 0.18761 0.2312 0.30697 0.3673 0.36146m185.2 106.81c1.806 2.372 21.917-15.192 27.217-24.105 1.3372-2.2489 2.0709-4.4646 1.8475-4.6825-0.6544-0.63833-8.2098 4.148-13.043 8.2627-3.888 3.3099-15.646 18.774-15.632 20.559 0 0.21654-0.4776-0.15155-0.3887-0.035m107.34 185.74c0.4049 2.9538 26.555-2.4402 35.555-7.5911 2.2708-1.2996 4.0644-2.6096 3.9847-2.9113-0.2337-0.88387-9.1747-0.65695-15.435 0.39144-5.036 0.84338-23.067 8.074-23.972 9.613-0.1098 0.18669-0.1526 0.35274-0.1327 0.49796m65.517 117.83c0.1138-3.1778 1.6994-6.3423 5.0189-8.007 11.194-5.614 26.317 3.3671 29.298 16.492 1.5725 6.9226-1.762 26.231-6.1421 32.718l-1.6089 2.3833-1.2525-2.5002c-1.1302-2.2571-0.9391-4.2684 0.8806-9.8227 6.0168-18.364-1.6537-39.188-13.818-37.019-5.4366 0.96953-5.8188 7.9048-0.6808 11.056 3.8751 2.3763 1.7763 5.0175-3.8217 4.8092-5.2918-0.19687-8.04-5.4643-7.8738-10.109m-56.92 212.58c2.1424-4.1242 7.2063-7.3037 11.908-4.8674 4.9738 2.5772 5.1202 6.7335 0.5747 6.7808-9.2134 0.096-8.5499 9.4317 0.8288 11.658 9.6332 2.2869 25.189-17.205 26.185-33.019 0.044-0.70363 1.2632-1.8659 2.7078-2.5832l3.0981-2.458-0.8957 7.0989c-0.2334 3.2695-1.9081 9.9658-3.0468 13.375-6.9111 20.691-31.31 29.669-41.283 13.993-1.9934-3.1332-1.5429-7.156-0.077-9.9779m-10.914 18.907c1.7287-2.6689 4.9395-5.0875 8.6485-4.9031 12.508 0.62168 21.173 15.814 17.314 28.708-2.0356 6.8008-14.679 21.773-21.681 25.271l-2.5721 1.2853 0.1374-2.7931c0.1247-2.5211 1.3652-4.1121 5.6797-8.055 14.265-13.037 18.076-34.738 6.4193-38.836-5.2099-1.8314-9.037 3.9586-6.113 9.2288 2.2053 3.975-1.4182 5.9438-6.1167 2.8932-4.4415-2.8836-4.2424-8.8985-1.7159-12.799m-155.28 155.3c3.9007-2.5265 9.9146-2.7271 12.798 1.7143 3.0506 4.6984 1.0828 8.3235-2.8921 6.1183-8.0571-4.47-12.784 4.2574-5.8938 10.998 7.077 6.9241 31.392-2.7866 40.069-16.046 0.3861-0.58992 2.02-0.99844 3.6304-0.90857l2.9273 0.1636s-3.3046 4.9594-3.3046 4.9594c-1.8178 2.7276-6.6322 7.6657-9.3065 10.067-16.231 14.574-42.007 10.14-42.93-8.4168-0.1843-3.709 2.2333-6.9214 4.9022-8.65m-18.905 10.917c2.8219-1.4658 6.8438-1.9179 9.977 0.0754 10.566 6.7223 9.5512 24.982-0.4004 34.044-5.249 4.7794-22.375 10.876-30.191 10.459l-4.0149 0.3172s2.6427-2.8308 2.6427-2.8308c1.3537-2.1306 2.1176-2.4848 7.8466-3.6419 18.942-3.8258 33.121-20.966 25.243-30.485-3.521-4.2542-9.127-1.4818-9.1898 4.5449-0.047 4.5455-4.2027 4.4008-6.7799-0.57303-2.4363-4.7018 0.7423-9.7672 4.8665-11.91v-0.00006m-212.57 56.956c4.6446-0.1662 9.9119 2.5801 10.109 7.8719 0.2083 5.598-2.4329 7.6967-4.8093 3.8216-4.8167-7.8547-13.237-2.6839-10.556 6.5752 2.7533 9.5104 27.42 13.176 41.667 6.2405 0.6339-0.3086 3.4273 0.029 4.7857 0.8988l2.4693 1.5809-6.6225 2.8065c-2.9592 1.41-9.6209 3.3423-13.148 4.0325-21.408 4.1889-40.23-12.201-31.901-28.809 1.6647-3.3195 4.8292-4.9051 8.007-5.0189m-21.32 0c3.1778 0.1138 6.3423 1.6994 8.007 5.0189 5.614 11.194-3.367 26.316-16.492 29.298-6.9226 1.5725-26.231-1.762-32.718-6.1422l-2.3832-1.6088 2.5002-1.2526c2.2571-1.1301 4.2684-0.9391 9.8227 0.8807 18.364 6.0168 39.187-1.6537 37.018-13.818-0.9695-5.4365-7.9036-5.8188-11.054-0.6808-2.3764 3.8751-5.0175 1.7763-4.8093-3.8216 0.1969-5.2918 5.4643-8.04 10.109-7.8738m-212.6-56.92c4.1242 2.1424 7.3037 7.2063 4.8675 11.908-2.5772 4.9738-6.7334 5.1201-6.7808 0.57462-0.096-9.2134-9.4317-8.5499-11.658 0.82877-2.287 9.6332 17.204 25.189 33.019 26.185 0.7036 0.044 1.8659 1.2632 2.5832 2.7078 0 0 2.458 3.0982 2.458 3.0982l-7.0988-0.8958c-3.2695-0.2333-9.9659-1.9081-13.375-3.0468-20.691-6.9111-29.669-31.31-13.993-41.283 3.1332-1.9934 7.1559-1.5429 9.9778-0.077m-18.907-10.914c2.669 1.7287 5.0874 4.9395 4.9031 8.6485-0.6218 12.508-15.814 21.173-28.708 17.314-6.8008-2.0356-21.773-14.679-25.271-21.681l-1.2852-2.5721 2.793 0.13742c2.5211 0.12471 4.1121 1.3652 8.0551 5.6797 13.037 14.265 34.737 18.075 38.835 6.4188 1.8314-5.2098-3.9576-9.0363-9.2279-6.1124-3.9749 2.2053-5.9437-1.4183-2.8932-6.1166 2.8837-4.4415 8.8986-4.2424 12.799-1.7159m-155.3-155.29c2.5265 3.9008 2.7271 9.9145-1.7144 12.798-4.6983 3.0505-8.3234 1.0827-6.1182-2.8922 4.4701-8.057-4.2573-12.784-10.998-5.8938-6.9241 7.077 2.7859 31.391 16.045 40.068 0.5899 0.38603 0.9984 2.02 0.9086 3.6303 0 0-0.1629 2.9284-0.1629 2.9284l-4.9594-3.3046c-2.7276-1.8178-7.6657-6.6322-10.067-9.3066-14.575-16.231-10.14-42.007 8.4168-42.93 3.7089-0.18435 6.9213 2.2333 8.65 4.9022m-10.916-18.904c1.4659 2.8218 1.9174 6.8427-0.076 9.9759-6.7223 10.566-24.982 9.5513-34.044-0.40041-4.7794-5.249-10.876-22.374-10.458-30.19l-0.3177-4.016 2.8313 2.6437c2.1306 1.3538 2.4848 2.1176 3.6419 7.8467 3.8258 18.942 20.966 33.121 30.485 25.243 4.2543-3.5209 1.4813-9.128-4.5455-9.1908-4.5454-0.0473-4.4008-4.2027 0.5731-6.7799 4.7018-2.4363 9.7678 0.74338 11.91 4.8676m-56.956-212.57c0.1662 4.6445-2.5801 9.9119-7.8719 10.109-5.598 0.20827-7.6968-2.4329-3.8216-4.8092 7.8547-4.8167 2.6839-13.236-6.5752-10.555-9.5104 2.7533-13.176 27.418-6.2406 41.666 0.3086 0.63389-0.029 3.4273-0.8988 4.7858l-1.5808 2.4692-2.8066-6.6225c-1.4099-2.9591-3.3421-9.6198-4.0323-13.147-4.1889-21.408 12.201-40.23 28.809-31.901 3.3195 1.6648 4.9051 4.8281 5.0189 8.0059m0-21.317c-0.1138 3.1778-1.6994 6.3422-5.0189 8.007-11.194 5.614-26.316-3.3671-29.298-16.492-1.5725-6.9227 1.7619-26.231 6.142-32.718l1.6089-2.3833 1.2525 2.5002c1.1302 2.2571 0.9391 4.2684-0.8806 9.8226-6.0168 18.364 1.6539 39.187 13.818 37.018 5.4365-0.96953 5.8187-7.9036 0.6808-11.054-3.8752-2.3764-1.7764-5.0175 3.8216-4.8092 5.2918 0.19688 8.04 5.4643 7.8738 10.109m56.919-212.58c-2.1424 4.1242-7.2062 7.3037-11.908 4.8674-4.9738-2.5772-5.1202-6.7334-0.5747-6.7808 9.2134-0.096 8.5499-9.4317-0.8288-11.658-9.6331-2.2869-25.189 17.204-26.184 33.018-0.044 0.70363-1.2632 1.8659-2.7078 2.5832l-3.0987 2.4592 0.8958-7.0988c0.2333-3.2696 1.9081-9.9659 3.0468-13.375 6.9111-20.691 31.31-29.669 41.283-13.993 1.9934 3.1332 1.543 7.1561 0.077 9.978m10.914-18.907c-1.7286 2.6689-4.9395 5.0875-8.6484 4.9032-12.508-0.62174-21.173-15.815-17.314-28.708 2.0356-6.8009 14.679-21.773 21.681-25.271l2.5722-1.2853-0.1375 2.793c-0.1247 2.5212-1.3651 4.1121-5.6796 8.0551-14.265 13.037-18.075 34.737-6.4186 38.835 5.2098 1.8314 9.0363-3.9576 6.1123-9.2279-2.2053-3.975 1.4182-5.9438 6.1167-2.8932 4.4414 2.8836 4.2424 8.8985 1.7159 12.799m155.28-155.3c-3.9008 2.5265-9.9146 2.7272-12.798-1.7142-3.0505-4.6984-1.0828-8.3235 2.8922-6.1183 8.0571 4.47 12.784-4.2574 5.8937-10.999-7.0771-6.9242-31.391 2.786-40.068 16.045-0.3861 0.58999-2.02 0.9985-3.6304 0.90863l-2.9283-0.16291s3.3046-4.9594 3.3046-4.9594c1.8178-2.7276 6.6322-7.6657 9.3066-10.067 16.23-14.57 42.006-10.14 42.928 8.42 0.1844 3.709-2.2332 6.9214-4.9021 8.6501m18.905-10.917c-2.8218 1.4659-6.8438 1.918-9.9769-0.0754-10.566-6.7223-9.5512-24.982 0.4004-34.044 5.249-4.7795 22.374-10.876 30.191-10.459l4.0149-0.31717-2.6426 2.8308c-1.3537 2.1306-2.1176 2.4848-7.8467 3.6419-18.942 3.8259-33.121 20.966-25.243 30.485 3.521 4.2543 9.127 1.4819 9.1899-4.5449 0.047-4.5455 4.2026-4.4008 6.7798 0.57302 2.4362 4.7018-0.7423 9.7673-4.8665 11.91m212.57-56.96c-4.6445 0.16623-9.9119-2.58-10.109-7.8718-0.2083-5.598 2.4328-7.6968 4.8092-3.8216 4.8168 7.8547 13.237 2.6839 10.556-6.5752-2.7534-9.5104-27.418-13.176-41.666-6.2405-0.6339 0.30863-3.4273-0.0295-4.7858-0.89874l-2.4703-1.5808 6.6224-2.8066c2.9592-1.4099 9.6209-3.3423 13.148-4.0325 21.408-4.189 40.23 12.201 31.901 28.809-1.6647 3.3195-4.8292 4.9051-8.007 5.0189m21.32 0c-3.1778-0.11377-6.3423-1.6994-8.007-5.0189-5.614-11.194 3.3671-26.317 16.492-29.298 6.9226-1.5725 26.231 1.762 32.718 6.1421l2.3832 1.6088-2.5001 1.2526c-2.2572 1.1301-4.2684 0.93909-9.8227-0.88068-18.364-6.0168-39.187 1.6538-37.018 13.818 0.9695 5.4365 7.9036 5.8188 11.054 0.68077 2.3763-3.8751 5.0175-1.7763 4.8092 3.8216-0.1969 5.2919-5.4643 8.04-10.109 7.8738m212.58 56.919c-4.1242-2.1424-7.3037-7.2062-4.8674-11.908 2.5772-4.9738 6.7334-5.1202 6.7807-0.57463 0.096 9.2134 9.4317 8.5499 11.658-0.82877 2.2869-9.6332-17.204-25.189-33.018-26.185-0.7037-0.0442-1.8659-1.2632-2.5832-2.7078 0 0-2.4592-3.0987-2.4592-3.0987s7.0989 0.89579 7.0989 0.89579c3.2695 0.23331 9.9659 1.9081 13.375 3.0468 20.691 6.9111 29.669 31.31 13.993 41.283-3.1332 1.9934-7.156 1.5429-9.9779 0.077m18.907 10.914c-2.6689-1.7287-5.0875-4.9394-4.9032-8.6484 0.6218-12.508 15.814-21.173 28.708-17.314 6.8009 2.0356 21.773 14.679 25.271 21.681 0 0 1.2853 2.5722 1.2853 2.5722l-2.7931-0.13743c-2.5212-0.12476-4.1121-1.3652-8.055-5.6797-13.037-14.265-34.737-18.075-38.835-6.4186-1.8314 5.2098 3.9575 9.0363 9.2278 6.1123 3.975-2.2053 5.9438 1.4182 2.8932 6.1166-2.8837 4.4415-8.8984 4.2424-12.799 1.7159m155.3 155.28c-2.5265-3.9008-2.7272-9.9146 1.7143-12.798 4.6984-3.0506 8.3235-1.0828 6.1182 2.8922-4.47 8.057 4.2574 12.784 10.999 5.8938 6.9242-7.077-2.786-31.391-16.045-40.068-0.5899-0.38609-0.9984-2.02-0.9086-3.6304l0.1629-2.9283 4.9601 3.3056c2.7276 1.8178 7.665 6.6312 10.066 9.3056 14.574 16.231 10.14 42.007-8.4168 42.93-3.7089 0.18436-6.9213-2.2331-8.65-4.9021m10.917 18.905c-1.4658-2.8218-1.918-6.8437 0.075-9.9769 6.7223-10.566 24.982-9.5513 34.044 0.4004 4.7795 5.249 10.876 22.374 10.458 30.19l0.3177 4.016-2.8312-2.6438c-2.1307-1.3537-2.4843-2.1164-3.6415-7.8456-3.8258-18.942-20.967-33.122-30.486-25.244-4.2543 3.521-1.4813 9.1281 4.5454 9.1909 4.5456 0.0473 4.4008 4.2027-0.5729 6.7799-4.7019 2.4362-9.7673-0.74233-11.91-4.8666h-0.0001m56.956 212.57c-0.1663-4.6445 2.5801-9.9119 7.8719-10.109 5.5979-0.20827 7.6967 2.4329 3.8216 4.8092-7.8547 4.8167-2.6839 13.237 6.5752 10.556 9.5104-2.7533 13.176-27.42 6.2405-41.667-0.3086-0.6339 0.029-3.4273 0.8987-4.7858 0 0 1.5809-2.4693 1.5809-2.4693s2.8065 6.6226 2.8065 6.6226c1.41 2.9591 3.3423 9.6198 4.0324 13.147 4.189 21.408-12.201 40.231-28.809 31.902-3.3195-1.6647-4.9051-4.8292-5.0188-8.007"/>
</g>
</svg>
